<svg id="NHLStenden_logo_groen-01" xmlns="http://www.w3.org/2000/svg" width="159.998" height="125.085" viewBox="0 0 159.998 125.085">
  <path id="Path_1" data-name="Path 1" d="M34.316,36.017V14.75H30.965v14.1L18.254,14.41H17.08V35.677h3.351V21.53L33.173,36.017Z" transform="translate(9.241 7.793)" fill="#009baa"/>
  <path id="Path_2" data-name="Path 2" d="M45.539,35.557h3.367V14.63H45.539v8.34H35.021V14.63H31.67V35.557h3.351V25.982H45.539Z" transform="translate(17.135 7.912)" fill="#009baa"/>
  <g id="Group_1" data-name="Group 1" transform="translate(24.843 53.85)">
    <path id="Path_3" data-name="Path 3" d="M26.591,52.758a4.105,4.105,0,0,1-2.61.788c-2.116,0-3.938-1.112-5.483-3.321L16.12,52.032a8.741,8.741,0,0,0,3.259,3.321,9.013,9.013,0,0,0,4.633,1.2,7.515,7.515,0,0,0,5.019-1.668A5.482,5.482,0,0,0,31.009,50.5a4.944,4.944,0,0,0-1.236-3.429A11.481,11.481,0,0,0,26,44.541l-2.348-1.066A11.964,11.964,0,0,1,21.4,42.147a2.045,2.045,0,0,1-.664-1.653,2.162,2.162,0,0,1,.927-1.884,3.811,3.811,0,0,1,2.255-.649,5.076,5.076,0,0,1,4.4,2.533l2.348-1.807a7.334,7.334,0,0,0-2.749-2.7,7.914,7.914,0,0,0-4-1.035,7.2,7.2,0,0,0-4.7,1.56,5.069,5.069,0,0,0-1.9,4.108,4.79,4.79,0,0,0,1.282,3.4,11.077,11.077,0,0,0,3.6,2.409l2.317,1.081a10.512,10.512,0,0,1,2.363,1.39,2.194,2.194,0,0,1,.71,1.745,2.614,2.614,0,0,1-1,2.116" transform="translate(-16.12 -34.95)" fill="#009baa"/>
  </g>
  <path id="Path_4" data-name="Path 4" d="M37.564,56.092v-17.9h7.074V35.18H27.17v3.012h7.043v17.9Z" transform="translate(14.7 19.025)" fill="#009baa"/>
  <path id="Path_5" data-name="Path 5" d="M54.642,53.08H43.861V46.455h7.83v-2.9h-7.83V38.192H54.256V35.18H40.51V56.092H54.642Z" transform="translate(21.921 19.025)" fill="#009baa"/>
  <g id="Group_2" data-name="Group 2" transform="translate(102.894 54.205)">
    <path id="Path_6" data-name="Path 6" d="M79.095,51A7.975,7.975,0,0,1,73.3,53.08H70.137V38.223H73.3A8.164,8.164,0,0,1,79.11,40.23a7.06,7.06,0,0,1,2.147,5.375A7.214,7.214,0,0,1,79.095,51M73.334,35.18H66.77V56.092h6.564a11.491,11.491,0,0,0,8.247-2.934,9.9,9.9,0,0,0,3.12-7.552,9.8,9.8,0,0,0-3.1-7.537,11.614,11.614,0,0,0-8.263-2.888" transform="translate(-66.77 -35.18)" fill="#009baa"/>
  </g>
  <path id="Path_7" data-name="Path 7" d="M84.321,46.455h7.83v-2.9h-7.83V38.192H94.716V35.18H80.97V56.092H95.1V53.08H84.321Z" transform="translate(43.769 19.025)" fill="#009baa"/>
  <path id="Path_8" data-name="Path 8" d="M92.64,34.95V56.217h3.367V42.085l12.726,14.487h1.143V35.305h-3.351v14.1L93.814,34.95Z" transform="translate(50.122 18.9)" fill="#009baa"/>
  <path id="Path_9" data-name="Path 9" d="M.1,0V97.81H97.91V54.334H94.343V68.342L81.709,53.979H80.535V75.246H83.9V61.114L94.343,72.975V94.243H3.683V3.568h90.66V40.511h-19.6V22.6H71.377V43.507H89.74v-.015h8.17V0Z" transform="translate(0.054)" fill="#009baa"/>
  <g id="Group_3" data-name="Group 3" transform="translate(0 107.695)">
    <path id="Path_10" data-name="Path 10" d="M4.572,74.477a3.358,3.358,0,0,0-2.626,1.1V69.89H0V83.759H1.946V78.354a2.061,2.061,0,0,1,.587-1.514,1.955,1.955,0,0,1,1.483-.587,1.81,1.81,0,0,1,1.436.587,2.174,2.174,0,0,1,.541,1.529v5.406H7.938V78.091a3.758,3.758,0,0,0-.911-2.61,3.155,3.155,0,0,0-2.456-1" transform="translate(0 -69.89)" fill="#009baa"/>
    <path id="Path_11" data-name="Path 11" d="M13.316,79.717a2.7,2.7,0,0,1-2.008.834,2.69,2.69,0,0,1-2.023-.834,2.967,2.967,0,0,1-.8-2.1,2.914,2.914,0,0,1,.8-2.116,2.775,2.775,0,0,1,2.023-.865,2.708,2.708,0,0,1,2.008.865,2.914,2.914,0,0,1,.8,2.116,2.84,2.84,0,0,1-.8,2.1M11.308,72.86a4.636,4.636,0,0,0-3.4,1.375,4.773,4.773,0,0,0,0,6.734,4.736,4.736,0,0,0,3.4,1.39,4.747,4.747,0,0,0,3.413-1.375,4.7,4.7,0,0,0,0-6.734,4.723,4.723,0,0,0-3.413-1.39" transform="translate(3.55 -68.273)" fill="#009baa"/>
    <path id="Path_12" data-name="Path 12" d="M20.543,79.517a2.746,2.746,0,0,1-1.931.741,2.689,2.689,0,0,1-1.977-.788,2.792,2.792,0,0,1-.8-2.07,2.711,2.711,0,0,1,.8-2.039,2.677,2.677,0,0,1,1.977-.772,2.763,2.763,0,0,1,1.931.71,2.613,2.613,0,0,1,.8,2.085,2.664,2.664,0,0,1-.8,2.131m.942-5.158a3.718,3.718,0,0,0-3.212-1.5,4.272,4.272,0,0,0-3.166,1.282,4.5,4.5,0,0,0-1.266,3.274,4.435,4.435,0,0,0,1.266,3.274,4.248,4.248,0,0,0,3.166,1.282,3.885,3.885,0,0,0,3.073-1.282v.633a2.436,2.436,0,0,1-.741,1.931,2.9,2.9,0,0,1-1.977.649,5.04,5.04,0,0,1-3.182-1.3l-1.081,1.344a6.163,6.163,0,0,0,4.371,1.714,4.637,4.637,0,0,0,3.305-1.158A4.344,4.344,0,0,0,23.277,81.2V73.061H21.485Z" transform="translate(7.535 -68.273)" fill="#009baa"/>
    <path id="Path_13" data-name="Path 13" d="M23.408,76.737a2.867,2.867,0,0,1,.942-1.622,2.518,2.518,0,0,1,1.668-.6,2.4,2.4,0,0,1,1.653.6,2.128,2.128,0,0,1,.68,1.622ZM26.1,72.86a4.5,4.5,0,0,0-3.336,1.375A4.577,4.577,0,0,0,21.4,77.6a4.5,4.5,0,0,0,1.39,3.367,4.762,4.762,0,0,0,3.49,1.359A5.155,5.155,0,0,0,29.91,80.86l-.927-1.328A3.961,3.961,0,0,1,26.342,80.6a3.007,3.007,0,0,1-1.977-.633,2.725,2.725,0,0,1-.988-1.761h6.765a5.8,5.8,0,0,0,.139-1.22A4.039,4.039,0,0,0,29.091,74a4.229,4.229,0,0,0-3-1.143" transform="translate(11.651 -68.273)" fill="#009baa"/>
    <path id="Path_14" data-name="Path 14" d="M32.585,76.845l-.865-.355A3.059,3.059,0,0,1,30.794,76a.724.724,0,0,1-.263-.587c0-.587.417-.865,1.236-.865a2.88,2.88,0,0,1,2.131.927l1.05-1.2A3.893,3.893,0,0,0,31.8,72.86a3.629,3.629,0,0,0-2.286.7,2.311,2.311,0,0,0-.911,1.931,2.146,2.146,0,0,0,.587,1.56,5.419,5.419,0,0,0,1.792,1.1l.927.386a5.483,5.483,0,0,1,.973.494.749.749,0,0,1,.309.633.826.826,0,0,1-.417.757,2,2,0,0,1-1.05.263,3.538,3.538,0,0,1-2.548-1.3L28.06,80.6a4.358,4.358,0,0,0,3.66,1.761,3.949,3.949,0,0,0,2.409-.726,2.45,2.45,0,0,0,.958-2.039,2.208,2.208,0,0,0-.587-1.575,5.593,5.593,0,0,0-1.915-1.174" transform="translate(15.277 -68.273)" fill="#009baa"/>
    <path id="Path_15" data-name="Path 15" d="M38.5,74.652a2.9,2.9,0,0,1,2.44,1.39l1.375-1.066a4.436,4.436,0,0,0-1.575-1.544,4.528,4.528,0,0,0-2.255-.571,4.7,4.7,0,0,0-3.413,1.375A4.545,4.545,0,0,0,33.68,77.6a4.6,4.6,0,0,0,1.39,3.382,4.7,4.7,0,0,0,3.413,1.375,4.247,4.247,0,0,0,3.83-2.116l-1.375-1.05a2.957,2.957,0,0,1-2.44,1.375,2.678,2.678,0,0,1-2.039-.834,2.914,2.914,0,0,1-.8-2.116,2.866,2.866,0,0,1,.8-2.085,2.609,2.609,0,0,1,2.039-.88" transform="translate(18.337 -68.273)" fill="#009baa"/>
    <path id="Path_16" data-name="Path 16" d="M45.222,74.477a3.358,3.358,0,0,0-2.626,1.1V69.89H40.65V83.759H42.6V78.354a2.061,2.061,0,0,1,.587-1.514,1.955,1.955,0,0,1,1.483-.587,1.81,1.81,0,0,1,1.436.587,2.174,2.174,0,0,1,.541,1.529v5.406h1.946V78.091a3.758,3.758,0,0,0-.911-2.61,3.155,3.155,0,0,0-2.456-1" transform="translate(22.132 -69.89)" fill="#009baa"/>
    <path id="Path_17" data-name="Path 17" d="M53.981,79.717a2.871,2.871,0,0,1-4.046,0,2.967,2.967,0,0,1-.8-2.1,2.914,2.914,0,0,1,.8-2.116,2.775,2.775,0,0,1,2.023-.865,2.708,2.708,0,0,1,2.008.865,2.914,2.914,0,0,1,.8,2.116,2.828,2.828,0,0,1-.788,2.1M51.958,72.86a4.636,4.636,0,0,0-3.4,1.375,4.773,4.773,0,0,0,0,6.734,4.886,4.886,0,0,0,6.811.015,4.515,4.515,0,0,0,1.421-3.367,4.458,4.458,0,0,0-1.421-3.367,4.7,4.7,0,0,0-3.413-1.39" transform="translate(25.682 -68.273)" fill="#009baa"/>
    <path id="Path_18" data-name="Path 18" d="M61.271,79.717a2.852,2.852,0,0,1-4.031,0,2.967,2.967,0,0,1-.8-2.1,2.914,2.914,0,0,1,.8-2.116,2.775,2.775,0,0,1,2.023-.865,2.708,2.708,0,0,1,2.008.865,2.914,2.914,0,0,1,.8,2.116,2.84,2.84,0,0,1-.8,2.1M59.248,72.86a4.636,4.636,0,0,0-3.4,1.375,4.773,4.773,0,0,0,0,6.734,4.886,4.886,0,0,0,6.811.015,4.7,4.7,0,0,0,0-6.734,4.673,4.673,0,0,0-3.413-1.39" transform="translate(29.651 -68.273)" fill="#009baa"/>
  </g>
  <rect id="Rectangle_2" data-name="Rectangle 2" width="1.946" height="13.869" transform="translate(95.766 107.695)" fill="#009baa"/>
</svg>
